<?xml version="1.0" standalone="no"?>
<!DOCTYPE svg PUBLIC "-//W3C//DTD SVG 1.1//EN" "http://www.w3.org/Graphics/SVG/1.1/DTD/svg11.dtd">
<svg t="1709729188251" class="icon" viewBox="0 0 1024 1024" version="1.1" xmlns="http://www.w3.org/2000/svg"
     p-id="5735" xmlns:xlink="http://www.w3.org/1999/xlink" width="200" height="200">
    <path d="M797.02528 659.3024c-16.00512 0-30.88384 3.15392-44.63104 9.01632-1.1264-1.01376-1.58208-2.14016-2.70336-3.15392L465.8688 382.9248c-19.15904-19.15904-46.77632-25.472-71.79776-18.59584l-0.5632-0.5632c-0.5632 0.5632-1.58208 0.5632-2.14016 1.01376a70.29248 70.29248 0 0 0-26.0352 14.31552c-174.37184 104.82176-293.9648 357.2992-293.9648 566.28224 0 29.18912-4.28032 43.04896 0 71.22944h546.55488v-275.47648l27.17184 27.16672c4.736 4.736 9.57952 8.448 14.8736 11.7248 2.47808 25.80992 23.56224 45.98272 49.59744 47.3344 25.92256 1.3568 48.91648-16.56832 54.09792-41.92768h1.01376v-10.70592c0-17.59232 14.32064-31.3344 31.33952-31.3344 17.58208 0 31.3344 14.31552 31.3344 31.3344v241.88416h83.968v-241.88416c1.1264-63.80032-50.48832-115.42016-114.29376-115.42016z m156.33408-516.23424c-4.28032-16.45568-56.91904-38.3232-73.37472-34.04288l-10.14272 2.70336-49.93024-56.35584c-5.2992-5.85728-31.8976-32.91136-52.07552-44.63616-28.73856-16.45568-251.46368 30.88384-280.21248 74.9568-12.17024 19.16416-17.46944 41.48224-20.16768 52.0704l-17.5872 86.6816-10.14272 2.59072c-16.45568 4.28032-51.06176 49.47968-46.77632 65.93536a30.36672 30.36672 0 0 0 14.5408 18.93376 31.26784 31.26784 0 0 0 23.7824 2.816l66.95424-17.58208c15.8976 85.09952 90.84416 149.34528 180.79744 149.34528 101.5552 0 183.95136-81.82784 183.95136-182.93248 0-21.30432-3.72224-41.92768-10.5984-61.09184l78.68416-21.30432c17.00352-4.61312 27.03872-21.632 22.2976-38.08768zM814.04928 48.49664l5.8624 6.87616c2.14016 2.70336 1.00864 1.1264-5.8624-6.87616z" fill="#1296db" p-id="5736"></path></svg>